<svg version="1.0" xmlns="http://www.w3.org/2000/svg"
 width="136.000000pt" height="67.000000pt" viewBox="0 0 236.000000 67.000000"
 preserveAspectRatio="xMidYMid meet">

<g transform="translate(0.000000,67.000000) scale(0.100000,-0.100000)"
fill="#000000" stroke="none">
<path d="M322 578 c-6 -8 -20 -35 -32 -62 -14 -34 -24 -46 -35 -42 -8 3 -15 1
-15 -3 0 -5 6 -12 13 -14 7 -3 5 -6 -5 -6 -10 -1 -18 -5 -18 -11 0 -5 8 -10
18 -11 10 0 12 -3 5 -6 -7 -2 -13 -9 -13 -14 0 -4 6 -6 14 -3 8 3 19 -3 25
-15 13 -24 15 -64 2 -57 -5 4 -16 3 -25 0 -12 -5 -16 -20 -16 -60 0 -50 3 -57
41 -95 45 -45 42 -62 -11 -73 -21 -4 -30 -11 -30 -25 0 -45 92 -28 126 24 9
14 34 35 54 45 46 24 69 57 77 115 6 47 -9 80 -33 71 -17 -7 -23 38 -8 59 8
11 19 15 30 11 14 -5 15 -4 4 9 -10 12 -10 15 4 15 9 0 16 5 16 10 0 6 -7 10
-16 10 -13 0 -14 3 -5 14 10 12 9 14 -6 10 -15 -4 -24 6 -42 50 -28 68 -37 75
-53 42 -14 -33 -24 -33 -41 0 -11 21 -15 23 -25 12z m22 -33 c7 -20 36 -19 52
3 11 15 15 11 38 -39 25 -57 25 -61 0 -131 -4 -10 -14 -19 -23 -19 -14 -1 -13
-2 2 -6 9 -2 17 -11 17 -19 0 -8 -8 -15 -17 -15 -17 -1 -17 -2 0 -6 9 -2 17
-11 17 -19 0 -8 -8 -15 -17 -15 -17 -1 -17 -2 0 -6 9 -2 17 -9 17 -14 0 -5 5
-9 10 -9 6 0 10 16 10 36 0 28 3 35 18 32 13 -3 17 -13 15 -46 -2 -48 -32 -97
-66 -108 -12 -4 -40 -26 -63 -50 -31 -34 -48 -44 -72 -44 -39 0 -42 15 -4 25
53 13 81 58 44 69 -38 12 -65 54 -70 107 -4 46 -3 51 14 47 12 -2 21 -14 24
-35 4 -28 7 -30 23 -18 17 12 17 13 0 20 -17 6 -17 7 1 21 17 12 18 14 3 14
-22 0 -22 16 1 29 15 9 15 10 1 11 -11 0 -21 16 -29 45 -11 40 -10 50 10 100
23 56 34 66 44 40z"/>
<path d="M1490 340 c0 -143 1 -150 20 -150 19 0 20 7 20 150 0 143 -1 150 -20
150 -19 0 -20 -7 -20 -150z"/>
<path d="M1770 464 c0 -21 4 -25 23 -22 14 2 23 11 25 26 3 18 -1 22 -22 22
-21 0 -26 -5 -26 -26z"/>
<path d="M650 402 c0 -59 3 -72 23 -90 13 -12 37 -25 55 -28 30 -6 32 -9 32
-50 0 -40 2 -44 25 -44 23 0 25 4 25 45 0 41 2 45 25 45 14 0 39 13 57 29 29
25 32 35 36 95 4 66 4 66 -22 66 -25 0 -26 -3 -26 -50 0 -68 -22 -90 -91 -90
-78 0 -89 10 -89 80 0 57 -1 60 -25 60 -24 0 -25 -2 -25 -68z"/>
<path d="M960 348 c0 -130 31 -161 158 -156 l77 3 3 103 3 102 -26 0 c-25 0
-25 -1 -25 -80 l0 -80 -52 0 c-75 0 -82 7 -86 89 -4 67 -6 71 -28 71 -22 0
-24 -4 -24 -52z"/>
<path d="M1257 382 c-22 -24 -22 -66 0 -83 9 -8 43 -16 77 -19 45 -4 61 -9 61
-20 0 -12 -17 -16 -77 -18 -75 -3 -78 -4 -78 -27 0 -24 2 -25 80 -25 73 0 83
3 105 25 30 30 31 54 4 89 -18 23 -28 26 -80 26 -33 0 -59 4 -59 10 0 6 28 10
65 10 63 0 65 1 65 25 0 24 -2 25 -73 25 -59 0 -77 -4 -90 -18z"/>
<path d="M1560 376 c0 -23 4 -25 53 -28 l52 -3 3 -77 c3 -75 4 -78 27 -78 24
0 25 2 25 79 0 64 -4 83 -21 105 -18 23 -28 26 -80 26 -56 0 -59 -1 -59 -24z"/>
<path d="M1770 295 l0 -105 25 0 25 0 0 105 0 105 -25 0 -25 0 0 -105z"/>
<path d="M1877 393 c-4 -3 -7 -51 -7 -105 0 -98 0 -98 25 -98 25 0 25 1 25 80
l0 80 53 0 c29 0 58 -5 65 -12 7 -7 12 -40 12 -80 0 -66 1 -68 25 -68 24 0 25
2 25 76 0 70 -2 78 -29 105 -28 27 -34 29 -109 29 -43 0 -82 -3 -85 -7z"/>
</g>
</svg>
